<?xml version="1.0" standalone="no"?><svg xmlns="http://www.w3.org/2000/svg" viewBox="0 0 1440 320"><path fill="#0099ff" fill-opacity="1" d="M0,32L30,58.7C60,85,120,139,180,165.3C240,192,300,192,360,170.7C420,149,480,107,540,80C600,53,660,43,720,37.3C780,32,840,32,900,58.7C960,85,1020,139,1080,144C1140,149,1200,107,1260,96C1320,85,1380,107,1410,117.3L1440,128L1440,320L1410,320C1380,320,1320,320,1260,320C1200,320,1140,320,1080,320C1020,320,960,320,900,320C840,320,780,320,720,320C660,320,600,320,540,320C480,320,420,320,360,320C300,320,240,320,180,320C120,320,60,320,30,320L0,320Z"></path></svg>