<?xml version="1.0" standalone="no"?><svg xmlns="http://www.w3.org/2000/svg" viewBox="0 0 1440 320"><path fill="#e7008a" fill-opacity="1" d="M0,128L16,138.7C32,149,64,171,96,181.3C128,192,160,192,192,192C224,192,256,192,288,170.7C320,149,352,107,384,96C416,85,448,107,480,112C512,117,544,107,576,106.7C608,107,640,117,672,117.3C704,117,736,107,768,96C800,85,832,75,864,80C896,85,928,107,960,133.3C992,160,1024,192,1056,186.7C1088,181,1120,139,1152,106.7C1184,75,1216,53,1248,53.3C1280,53,1312,75,1344,80C1376,85,1408,75,1424,69.3L1440,64L1440,320L1424,320C1408,320,1376,320,1344,320C1312,320,1280,320,1248,320C1216,320,1184,320,1152,320C1120,320,1088,320,1056,320C1024,320,992,320,960,320C928,320,896,320,864,320C832,320,800,320,768,320C736,320,704,320,672,320C640,320,608,320,576,320C544,320,512,320,480,320C448,320,416,320,384,320C352,320,320,320,288,320C256,320,224,320,192,320C160,320,128,320,96,320C64,320,32,320,16,320L0,320Z"></path></svg>