<?xml version="1.0" standalone="no"?><svg xmlns="http://www.w3.org/2000/svg" viewBox="0 0 1440 320"><path fill="#262626" fill-opacity="1" d="M0,96L16,133.3C32,171,64,245,96,245.3C128,245,160,171,192,133.3C224,96,256,96,288,101.3C320,107,352,117,384,106.7C416,96,448,64,480,80C512,96,544,160,576,154.7C608,149,640,75,672,69.3C704,64,736,128,768,160C800,192,832,192,864,160C896,128,928,64,960,42.7C992,21,1024,43,1056,90.7C1088,139,1120,213,1152,229.3C1184,245,1216,203,1248,165.3C1280,128,1312,96,1344,80C1376,64,1408,64,1424,64L1440,64L1440,320L1424,320C1408,320,1376,320,1344,320C1312,320,1280,320,1248,320C1216,320,1184,320,1152,320C1120,320,1088,320,1056,320C1024,320,992,320,960,320C928,320,896,320,864,320C832,320,800,320,768,320C736,320,704,320,672,320C640,320,608,320,576,320C544,320,512,320,480,320C448,320,416,320,384,320C352,320,320,320,288,320C256,320,224,320,192,320C160,320,128,320,96,320C64,320,32,320,16,320L0,320Z"></path></svg>